<?xml version="1.0" encoding="utf-8"?>
<!-- Generator: Adobe Illustrator 18.1.1, SVG Export Plug-In . SVG Version: 6.00 Build 0)  -->
<svg version="1.1" id="Layer_1" xmlns="http://www.w3.org/2000/svg" xmlns:xlink="http://www.w3.org/1999/xlink" x="0px" y="0px"
	 viewBox="0 0 260 36" enable-background="new 0 0 260 36" xml:space="preserve">
<g>
	<path fill="#814171" d="M16.7,2.9h5.1l-3,24h-5.1L15,16.6H6.4L5.1,27H0l3-24h5.1l-1.2,9.5h8.7L16.7,2.9z"/>
	<path fill="#814171" d="M23,17.8c0.9-7.1,4.6-9.6,9.5-9.6c5.1,0,8,2.5,7.1,9.6c-0.9,7.1-4.5,9.6-9.7,9.6C25,27.5,22.1,24.9,23,17.8
		z M27.8,17.8c-0.6,4.6,0.8,5.8,2.8,5.8c2,0,3.6-1.2,4.2-5.8c0.6-4.9-0.8-5.8-2.8-5.8S28.4,13,27.8,17.8z"/>
	<path fill="#814171" d="M50.6,26.7c-1.7,0.7-3.1,0.8-3.7,0.8c-5.4,0-5.2-3.2-4.8-6.3l2.4-19.4h5l-2.4,19.7
		c-0.1,1.3,0.1,1.9,1.2,1.9c0.4,0,1.3,0,2.3-0.3L50.6,26.7z"/>
	<path fill="#814171" d="M56.9,27h-5l2.2-18.5h5L56.9,27z M55.2,0.3h5l-0.6,5.3h-5L55.2,0.3z"/>
	<path fill="#814171" d="M76.2,26.3c-2.1,0.6-5.1,1-8.1,1c-4.5,0-8.4-1.8-7.4-9.3c0.6-4.8,3.1-9.8,9.5-9.8c1,0,2.2,0.1,3.3,0.6
		l0.9-7.2h4.9L76.2,26.3z M73.1,12.3C72.2,12,71.3,12,70.6,12c-2.8,0-4.5,2.7-4.9,6.1c-0.5,3.8,0.9,5.5,3.6,5.5
		c0.7,0,1.5-0.1,2.4-0.4L73.1,12.3z"/>
	<path fill="#814171" d="M86.3,27.4c-5.5,0-6.9-4.5-6.3-9.4c0.6-4.9,3.5-9.9,10.8-9.9c2,0,4.2,0.4,6.5,1.4l-1.6,13
		c-0.1,0.7,0.4,1,1,1c0.5,0,0.9-0.1,1.3-0.4l-0.2,3.3c-1.3,0.6-2.6,0.9-3.8,0.9c-1.6,0-2.9-0.6-3.3-1.9
		C89.8,26.6,88.2,27.4,86.3,27.4z M92,12.4C91.2,12,90.7,12,90,12c-3.5,0-4.6,3.3-5,6.4c-0.3,2.7,0.4,5.3,3.1,5.3
		c0.7,0,1.7-0.2,2.7-0.8L92,12.4z"/>
	<path fill="#814171" d="M100.4,17.2c0.4-3.2,1.3-6.4,2.2-8.7h4.7c-0.5,1.3-1.8,5.1-2.2,8.5c-0.5,4-0.1,6.7,3.1,6.7
		c0.8,0,1.7-0.1,2.8-0.5l1.8-14.6h4.9L115.3,27c-0.8,6.7-5.3,8.6-9.7,8.6c-2,0-4.7-0.5-6.9-1.4l1.1-3.9c2.3,0.7,5,1.1,6.5,1.1
		c2.1,0,3.7-0.6,4.2-4.6l0.1-0.7c-1.3,1-3.5,1.1-4,1.1C99.8,27.3,99.7,22.5,100.4,17.2z"/>
	<path fill="#814171" d="M121.8,3.4c2-0.4,4.9-0.7,7.7-0.7c4.7,0,9.2,1.3,8.4,8.1c-0.7,5.5-4.5,7.8-9.1,7.8c-1.2,0-2.4-0.1-3.6-0.4
		l-1.1,8.9h-5.2L121.8,3.4z M128,14.8c2.4,0,4.5-0.7,4.9-3.9c0.5-3.6-1.7-4.4-3.9-4.4c-0.9,0-1.8,0.1-2.5,0.3l-0.9,7.8
		C126.4,14.8,127.2,14.8,128,14.8z"/>
	<path fill="#814171" d="M143.2,27h-5l2.2-18.5h5L143.2,27z M141.4,0.3h5l-0.6,5.3h-5L141.4,0.3z"/>
	<path fill="#814171" d="M151.4,27h-4.9l2.2-18.5h4.3v1.7c1.6-1.3,3.7-2.1,5.7-2.1c0.5,0,1.1,0,1.7,0.1l-1,4.1
		c-0.5-0.1-1.4-0.1-1.9-0.1c-1.5,0-3.5,0.3-4.4,0.9L151.4,27z"/>
	<path fill="#814171" d="M166.1,27.4c-5.5,0-6.9-4.5-6.3-9.4c0.6-4.9,3.5-9.9,10.8-9.9c2,0,4.2,0.4,6.5,1.4l-1.6,13
		c-0.1,0.7,0.4,1,1,1c0.5,0,0.9-0.1,1.3-0.4l-0.2,3.3c-1.3,0.6-2.6,0.9-3.8,0.9c-1.6,0-2.9-0.6-3.3-1.9
		C169.5,26.6,167.9,27.4,166.1,27.4z M171.7,12.4c-0.8-0.4-1.3-0.5-2-0.5c-3.5,0-4.6,3.3-5,6.4c-0.3,2.7,0.4,5.3,3.1,5.3
		c0.7,0,1.7-0.2,2.7-0.8L171.7,12.4z"/>
	<path fill="#814171" d="M182.8,12h-3.1l0.4-3.5h3.2l0.5-4.2l5-0.4l-0.6,4.6h5.1l-0.7,3.5h-4.8l-1.2,9.5c-0.1,1.3,0.1,1.9,1.3,1.9
		c0.5,0,1.5-0.1,2.5-0.3l0.1,3.6c-1.6,0.7-3.4,0.8-4,0.8c-5.5,0-5.1-3.3-4.7-6.4L182.8,12z"/>
	<path fill="#814171" d="M209.7,13.6c-0.6,4.9-5.4,6.5-9,6.5c-0.9,0-1.7-0.1-2.4-0.3c-0.3,2.7,2.2,3.6,4.9,3.6
		c1.7,0,3.5-0.4,4.5-0.8l0.1,3.6c-0.8,0.3-3.3,1.1-6.9,1.1c-6.2,0-8.2-4.1-7.6-9c0.6-5.1,3.8-10,10.8-10
		C207.6,8.3,210.1,10,209.7,13.6z M203.2,11.9c-2.7,0-4.4,2-4.9,5.1c0.5,0.2,1.1,0.3,1.5,0.3c2.2,0,4.7-1.2,5-3.6
		C204.9,12.8,204.3,11.9,203.2,11.9z"/>
	<path fill="#814171" d="M223.9,13.6c-0.4-0.5-2.9-1.5-4.9-1.5c-1.3,0-2.3,0.4-2.5,1.6c-0.1,1.3,1.5,2,3.2,2.7
		c2.1,0.9,4.8,1.8,4.4,5c-0.5,3.9-3.1,6-8.3,6c-2.3,0-4.9-0.6-6-1.3l1.3-3.7c0.9,0.3,3.3,1.2,5.3,1.2c1.5,0,2.7-0.3,2.9-1.7
		c0.1-1.3-1.2-1.9-2.8-2.6c-2.4-1.1-5.1-2.3-4.7-5.5c0.5-4.1,4.1-5.8,7.6-5.8c2.1,0,4.2,0.5,5.7,1.7L223.9,13.6z"/>
</g>
<g>
	<path fill="#333333" d="M230.1,26.1c0-0.3,0.1-0.5,0.2-0.7s0.3-0.2,0.6-0.2c0.3,0,0.5,0.1,0.6,0.2s0.2,0.4,0.2,0.7
		c0,0.3-0.1,0.5-0.2,0.7s-0.4,0.2-0.6,0.2c-0.2,0-0.4-0.1-0.6-0.2S230.1,26.4,230.1,26.1z"/>
	<path fill="#333333" d="M237,26.9c-1.1,0-1.9-0.3-2.5-1s-0.9-1.6-0.9-2.8c0-1.3,0.3-2.2,0.9-2.9s1.5-1,2.6-1c0.4,0,0.7,0,1.1,0.1
		s0.6,0.2,0.8,0.3l-0.3,1c-0.3-0.1-0.5-0.2-0.8-0.2s-0.6-0.1-0.8-0.1c-1.5,0-2.3,1-2.3,2.9c0,0.9,0.2,1.6,0.6,2.1s0.9,0.7,1.7,0.7
		c0.6,0,1.3-0.1,1.9-0.4v1C238.4,26.8,237.7,26.9,237,26.9z"/>
	<path fill="#333333" d="M247.1,23c0,1.2-0.3,2.2-0.9,2.9s-1.5,1-2.5,1c-0.7,0-1.3-0.2-1.8-0.5s-0.9-0.8-1.2-1.4s-0.4-1.3-0.4-2.1
		c0-1.2,0.3-2.2,0.9-2.9s1.5-1,2.5-1c1,0,1.9,0.3,2.5,1S247.1,21.8,247.1,23z M241.4,23c0,1,0.2,1.7,0.6,2.2s0.9,0.8,1.7,0.8
		s1.3-0.2,1.7-0.7s0.6-1.2,0.6-2.2c0-1-0.2-1.7-0.6-2.2s-1-0.7-1.7-0.7c-0.7,0-1.3,0.2-1.7,0.7S241.4,22.1,241.4,23z"/>
	<path fill="#333333" d="M258.6,26.8v-4.9c0-0.6-0.1-1-0.4-1.3s-0.7-0.4-1.2-0.4c-0.7,0-1.2,0.2-1.6,0.6s-0.5,1-0.5,1.9v4.2h-1.1
		v-4.9c0-0.6-0.1-1-0.4-1.3s-0.7-0.4-1.2-0.4c-0.7,0-1.2,0.2-1.6,0.6s-0.5,1.1-0.5,2.1v3.9h-1.1v-7.5h0.9l0.2,1h0.1
		c0.2-0.4,0.5-0.6,0.9-0.9s0.8-0.3,1.3-0.3c1.2,0,1.9,0.4,2.3,1.3h0.1c0.2-0.4,0.5-0.7,1-0.9s0.9-0.3,1.4-0.3c0.8,0,1.5,0.2,1.9,0.7
		s0.6,1.1,0.6,2.1v4.9H258.6z"/>
</g>
<path fill="#814171" d="M227.4,6c0-0.9,0.2-1.7,0.6-2.4c0.4-0.8,1-1.3,1.8-1.8c0.8-0.4,1.6-0.7,2.4-0.7c0.9,0,1.7,0.2,2.4,0.6
	c0.8,0.4,1.3,1,1.8,1.8s0.7,1.6,0.7,2.4c0,0.8-0.2,1.6-0.6,2.4c-0.4,0.7-1,1.3-1.8,1.8c-0.8,0.4-1.6,0.7-2.5,0.7
	c-0.9,0-1.7-0.2-2.5-0.7c-0.8-0.4-1.3-1-1.8-1.8C227.6,7.7,227.4,6.9,227.4,6z M228.1,6c0,0.7,0.2,1.4,0.6,2.1
	c0.4,0.6,0.9,1.2,1.5,1.5c0.6,0.4,1.3,0.6,2.1,0.6c0.7,0,1.4-0.2,2.1-0.6c0.6-0.4,1.1-0.9,1.5-1.5c0.4-0.6,0.6-1.3,0.6-2.1
	c0-0.7-0.2-1.4-0.6-2.1c-0.4-0.6-0.9-1.1-1.5-1.5c-0.6-0.4-1.3-0.6-2.1-0.6c-0.7,0-1.4,0.2-2.1,0.6c-0.6,0.4-1.1,0.9-1.5,1.5
	C228.3,4.6,228.1,5.3,228.1,6z M234.2,4.9c0,0.3-0.1,0.6-0.3,0.9c-0.2,0.3-0.4,0.5-0.8,0.6l1.5,2.5h-1.1l-1.3-2.3h-0.9v2.3h-1V3.2
	h1.7c0.7,0,1.2,0.1,1.6,0.4C234.1,3.9,234.2,4.3,234.2,4.9z M231.4,5.8h0.7c0.3,0,0.6-0.1,0.8-0.3c0.2-0.2,0.3-0.4,0.3-0.7
	c0-0.3-0.1-0.6-0.3-0.7c-0.2-0.1-0.5-0.2-0.9-0.2h-0.7V5.8z"/>
</svg>
